<svg width="60" height="60" viewBox="0 0 60 60" fill="none" xmlns="http://www.w3.org/2000/svg">
<rect width="60" height="60" rx="30" fill="#1F4B3F"/>
<path d="M19.931 35L23.801 24.5H25.541L29.381 35H27.701L26.801 32.435H22.511L21.611 35H19.931ZM22.961 31.175H26.351L24.656 26.39L22.961 31.175ZM31.4153 35.09C31.1153 35.09 30.8653 34.995 30.6653 34.805C30.4753 34.605 30.3803 34.37 30.3803 34.1C30.3803 33.82 30.4753 33.585 30.6653 33.395C30.8653 33.195 31.1153 33.095 31.4153 33.095C31.7153 33.095 31.9603 33.195 32.1503 33.395C32.3403 33.585 32.4353 33.82 32.4353 34.1C32.4353 34.37 32.3403 34.605 32.1503 34.805C31.9603 34.995 31.7153 35.09 31.4153 35.09ZM35.3561 35V25.79H32.2511V24.5H40.0361V25.79H36.9461V35H35.3561Z" fill="white"/>
</svg>
