<svg width="157" height="41" viewBox="0 0 157 41" fill="none" xmlns="http://www.w3.org/2000/svg">
<path d="M56.294 27.9648V13.6368H51.398V11.1648H64.286V13.6368H59.366V27.9648H56.294ZM69.8628 28.2528C68.8068 28.2528 67.8788 28.0848 67.0788 27.7488C66.2788 27.3968 65.6388 26.9168 65.1588 26.3088C64.6788 25.7008 64.3908 24.9968 64.2948 24.1968H67.3908C67.4868 24.6608 67.7428 25.0608 68.1588 25.3968C68.5908 25.7168 69.1428 25.8768 69.8148 25.8768C70.4868 25.8768 70.9748 25.7408 71.2788 25.4688C71.5988 25.1968 71.7588 24.8848 71.7588 24.5328C71.7588 24.0208 71.5348 23.6768 71.0868 23.5008C70.6388 23.3088 70.0148 23.1248 69.2148 22.9488C68.7028 22.8368 68.1828 22.7008 67.6548 22.5408C67.1268 22.3808 66.6388 22.1808 66.1908 21.9408C65.7588 21.6848 65.4068 21.3648 65.1348 20.9808C64.8628 20.5808 64.7268 20.0928 64.7268 19.5168C64.7268 18.4608 65.1428 17.5728 65.9748 16.8528C66.8228 16.1328 68.0068 15.7728 69.5268 15.7728C70.9348 15.7728 72.0548 16.1008 72.8868 16.7568C73.7348 17.4128 74.2388 18.3168 74.3988 19.4688H71.4948C71.3188 18.5888 70.6548 18.1488 69.5028 18.1488C68.9268 18.1488 68.4788 18.2608 68.1588 18.4848C67.8548 18.7088 67.7028 18.9888 67.7028 19.3248C67.7028 19.6768 67.9348 19.9568 68.3988 20.1648C68.8628 20.3728 69.4788 20.5648 70.2468 20.7408C71.0788 20.9328 71.8388 21.1488 72.5268 21.3888C73.2308 21.6128 73.7908 21.9568 74.2068 22.4208C74.6228 22.8688 74.8308 23.5168 74.8308 24.3648C74.8468 25.1008 74.6548 25.7648 74.2548 26.3568C73.8548 26.9488 73.2788 27.4128 72.5268 27.7488C71.7748 28.0848 70.8868 28.2528 69.8628 28.2528ZM77.5522 27.9648V10.6848H80.6242V20.8848L84.8482 16.0608H88.4962L83.6242 21.4848L89.2882 27.9648H85.4482L80.6242 21.9888V27.9648H77.5522ZM91.1928 27.9648V16.0608H93.9288L94.2168 18.2928C94.6488 17.5248 95.2328 16.9168 95.9688 16.4688C96.7208 16.0048 97.6008 15.7728 98.6088 15.7728V19.0128H97.7448C97.0728 19.0128 96.4728 19.1168 95.9448 19.3248C95.4168 19.5328 95.0008 19.8928 94.6968 20.4048C94.4088 20.9168 94.2648 21.6288 94.2648 22.5408V27.9648H91.1928Z" fill="white"/>
<path d="M102.028 28.1328C101.468 28.1328 101.004 27.9568 100.636 27.6048C100.284 27.2528 100.108 26.8288 100.108 26.3328C100.108 25.8208 100.284 25.3888 100.636 25.0368C101.004 24.6848 101.468 24.5088 102.028 24.5088C102.588 24.5088 103.044 24.6848 103.396 25.0368C103.764 25.3888 103.948 25.8208 103.948 26.3328C103.948 26.8288 103.764 27.2528 103.396 27.6048C103.044 27.9568 102.588 28.1328 102.028 28.1328ZM112.306 28.2528C111.09 28.2528 110.018 27.9888 109.09 27.4608C108.162 26.9328 107.426 26.1968 106.882 25.2528C106.354 24.3088 106.09 23.2288 106.09 22.0128C106.09 20.7968 106.354 19.7168 106.882 18.7728C107.426 17.8288 108.162 17.0928 109.09 16.5648C110.018 16.0368 111.09 15.7728 112.306 15.7728C113.826 15.7728 115.106 16.1728 116.146 16.9728C117.186 17.7568 117.85 18.8448 118.138 20.2368H114.898C114.738 19.6608 114.418 19.2128 113.938 18.8928C113.474 18.5568 112.922 18.3888 112.282 18.3888C111.434 18.3888 110.714 18.7088 110.122 19.3488C109.53 19.9888 109.234 20.8768 109.234 22.0128C109.234 23.1488 109.53 24.0368 110.122 24.6768C110.714 25.3168 111.434 25.6368 112.282 25.6368C112.922 25.6368 113.474 25.4768 113.938 25.1568C114.418 24.8368 114.738 24.3808 114.898 23.7888H118.138C117.85 25.1328 117.186 26.2128 116.146 27.0288C115.106 27.8448 113.826 28.2528 112.306 28.2528ZM126.577 28.2528C125.425 28.2528 124.385 27.9888 123.457 27.4608C122.545 26.9328 121.817 26.2048 121.273 25.2768C120.745 24.3328 120.481 23.2448 120.481 22.0128C120.481 20.7808 120.753 19.7008 121.297 18.7728C121.841 17.8288 122.569 17.0928 123.481 16.5648C124.409 16.0368 125.449 15.7728 126.601 15.7728C127.737 15.7728 128.761 16.0368 129.673 16.5648C130.601 17.0928 131.329 17.8288 131.857 18.7728C132.401 19.7008 132.673 20.7808 132.673 22.0128C132.673 23.2448 132.401 24.3328 131.857 25.2768C131.329 26.2048 130.601 26.9328 129.673 27.4608C128.745 27.9888 127.713 28.2528 126.577 28.2528ZM126.577 25.5888C127.377 25.5888 128.073 25.2928 128.665 24.7008C129.257 24.0928 129.553 23.1968 129.553 22.0128C129.553 20.8288 129.257 19.9408 128.665 19.3488C128.073 18.7408 127.385 18.4368 126.601 18.4368C125.785 18.4368 125.081 18.7408 124.489 19.3488C123.913 19.9408 123.625 20.8288 123.625 22.0128C123.625 23.1968 123.913 24.0928 124.489 24.7008C125.081 25.2928 125.777 25.5888 126.577 25.5888ZM135.419 27.9648V16.0608H138.131L138.395 17.6688C138.779 17.0928 139.283 16.6368 139.907 16.3008C140.547 15.9488 141.283 15.7728 142.115 15.7728C143.955 15.7728 145.259 16.4848 146.027 17.9088C146.459 17.2528 147.035 16.7328 147.755 16.3488C148.491 15.9648 149.291 15.7728 150.155 15.7728C151.707 15.7728 152.899 16.2368 153.731 17.1648C154.563 18.0928 154.979 19.4528 154.979 21.2448V27.9648H151.907V21.5328C151.907 20.5088 151.707 19.7248 151.307 19.1808C150.923 18.6368 150.323 18.3648 149.507 18.3648C148.675 18.3648 148.003 18.6688 147.491 19.2768C146.995 19.8848 146.747 20.7328 146.747 21.8208V27.9648H143.675V21.5328C143.675 20.5088 143.475 19.7248 143.075 19.1808C142.675 18.6368 142.059 18.3648 141.227 18.3648C140.411 18.3648 139.747 18.6688 139.235 19.2768C138.739 19.8848 138.491 20.7328 138.491 21.8208V27.9648H135.419Z" fill="#5BBB7B"/>
<path fill-rule="evenodd" clip-rule="evenodd" d="M0 15.5C0 7.21573 6.71573 0.5 15 0.5H25C33.2843 0.5 40 7.21573 40 15.5V25.5C40 33.7843 33.2843 40.5 25 40.5H15C6.71573 40.5 0 33.7843 0 25.5V15.5ZM23.6368 32.0073C22.3526 32.0073 21.311 31.6071 20.5119 30.8066C19.7129 30.0061 19.3141 28.9369 19.3158 27.5989V9.09636H24.2647V15.1574H29.3707V19.2513H24.2647V26.7402C24.2647 27.4917 24.6403 27.4907 25.2761 27.4892L25.3662 27.489H29.3707V32.0098L23.6368 32.0073ZM10.6143 14.3165H16.6086V20.3107H10.6143V14.3165Z" fill="white"/>
</svg>
