<svg width="140" height="38" viewBox="0 0 140 38" fill="none" xmlns="http://www.w3.org/2000/svg">
<path fill-rule="evenodd" clip-rule="evenodd" d="M0 14.375C0 6.71205 6.21205 0.5 13.875 0.5H23.125C30.7879 0.5 37 6.71205 37 14.375V23.625C37 31.2879 30.7879 37.5 23.125 37.5H13.875C6.21205 37.5 0 31.2879 0 23.625V14.375ZM21.864 29.6443C20.6762 29.6443 19.7127 29.274 18.9735 28.5336C18.2344 27.7931 17.8656 26.8041 17.8671 25.5664V8.45159H22.4449V14.058H27.1679V17.8449H22.4449V24.7721C22.4449 25.4672 22.7923 25.4664 23.3804 25.465H23.3811C23.4081 25.4649 23.4357 25.4648 23.4637 25.4648H27.1679V29.6466L21.864 29.6443ZM9.81818 13.2802H15.3629V18.8249H9.81818V13.2802Z" fill="#5BBB7B"/>
<path d="M51.4593 26.2541V14.0205H47V11.9098H58.7385V14.0205H54.2573V26.2541H51.4593Z" fill="#222222"/>
<path d="M63.8179 26.5C62.8561 26.5 62.0109 26.3566 61.2822 26.0697C60.5536 25.7691 59.9707 25.3593 59.5335 24.8402C59.0963 24.321 58.834 23.7199 58.7465 23.0369H61.5664C61.6538 23.4331 61.887 23.7746 62.2659 24.0615C62.6594 24.3347 63.1621 24.4713 63.7742 24.4713C64.3862 24.4713 64.8307 24.3552 65.1076 24.123C65.3991 23.8907 65.5448 23.6243 65.5448 23.3238C65.5448 22.8866 65.3408 22.5929 64.9327 22.4426C64.5247 22.2787 63.9563 22.1216 63.2277 21.9713C62.7614 21.8757 62.2877 21.7596 61.8068 21.623C61.3259 21.4863 60.8815 21.3156 60.4734 21.1107C60.0799 20.8921 59.7593 20.6189 59.5116 20.291C59.2639 19.9495 59.14 19.5328 59.14 19.041C59.14 18.1393 59.5189 17.3811 60.2767 16.7664C61.049 16.1516 62.1274 15.8443 63.5119 15.8443C64.7943 15.8443 65.8144 16.1243 66.5722 16.6844C67.3446 17.2445 67.8036 18.0164 67.9493 19H65.3043C65.144 18.2486 64.5393 17.873 63.49 17.873C62.9654 17.873 62.5573 17.9686 62.2659 18.1598C61.989 18.3511 61.8506 18.5902 61.8506 18.877C61.8506 19.1776 62.0619 19.4167 62.4845 19.5943C62.9071 19.7719 63.4682 19.9358 64.1677 20.0861C64.9254 20.25 65.6177 20.4344 66.2443 20.6393C66.8855 20.8306 67.3956 21.1243 67.7745 21.5205C68.1534 21.903 68.3428 22.4563 68.3428 23.1803C68.3574 23.8087 68.1825 24.3757 67.8182 24.8811C67.4539 25.3866 66.9292 25.7828 66.2443 26.0697C65.5594 26.3566 64.7506 26.5 63.8179 26.5Z" fill="#222222"/>
<path d="M70.8215 26.2541V11.5H73.6195V20.209L77.4667 16.0902H80.7893L76.3519 20.7213L81.5107 26.2541H78.0132L73.6195 21.1516V26.2541H70.8215Z" fill="#222222"/>
<path d="M83.2454 26.2541V16.0902H85.7374L85.9997 17.9959C86.3932 17.3402 86.9251 16.821 87.5955 16.4385C88.2804 16.0423 89.0819 15.8443 90 15.8443V18.6107H89.2131C88.601 18.6107 88.0545 18.6995 87.5736 18.877C87.0927 19.0546 86.7138 19.362 86.4369 19.7992C86.1746 20.2363 86.0434 20.8443 86.0434 21.623V26.2541H83.2454Z" fill="#222222"/>
<path d="M91.7496 26.3942C91.2393 26.3942 90.8165 26.2391 90.4811 25.9288C90.1604 25.6186 90 25.2449 90 24.8077C90 24.3564 90.1604 23.9756 90.4811 23.6654C90.8165 23.3551 91.2393 23.2 91.7496 23.2C92.2598 23.2 92.6754 23.3551 92.9961 23.6654C93.3315 23.9756 93.4991 24.3564 93.4991 24.8077C93.4991 25.2449 93.3315 25.6186 92.9961 25.9288C92.6754 26.2391 92.2598 26.3942 91.7496 26.3942Z" fill="#5BBB7B"/>
<path d="M101.115 26.5C100.007 26.5 99.0299 26.2673 98.1843 25.8019C97.3387 25.3365 96.668 24.6878 96.1723 23.8558C95.6912 23.0237 95.4506 22.0718 95.4506 21C95.4506 19.9282 95.6912 18.9763 96.1723 18.1442C96.668 17.3122 97.3387 16.6635 98.1843 16.1981C99.0299 15.7327 100.007 15.5 101.115 15.5C102.5 15.5 103.666 15.8526 104.614 16.5577C105.562 17.2487 106.167 18.2077 106.429 19.4346H103.477C103.331 18.9269 103.039 18.5321 102.602 18.25C102.179 17.9538 101.676 17.8058 101.093 17.8058C100.32 17.8058 99.6642 18.0878 99.1247 18.6519C98.5853 19.216 98.3155 19.9987 98.3155 21C98.3155 22.0013 98.5853 22.784 99.1247 23.3481C99.6642 23.9122 100.32 24.1942 101.093 24.1942C101.676 24.1942 102.179 24.0532 102.602 23.7712C103.039 23.4891 103.331 23.0872 103.477 22.5654H106.429C106.167 23.75 105.562 24.7019 104.614 25.4212C103.666 26.1404 102.5 26.5 101.115 26.5Z" fill="#5BBB7B"/>
<path d="M114.119 26.5C113.069 26.5 112.121 26.2673 111.276 25.8019C110.445 25.3365 109.781 24.6949 109.285 23.8769C108.804 23.0449 108.564 22.0859 108.564 21C108.564 19.9141 108.812 18.9622 109.307 18.1442C109.803 17.3122 110.466 16.6635 111.297 16.1981C112.143 15.7327 113.091 15.5 114.141 15.5C115.176 15.5 116.109 15.7327 116.94 16.1981C117.785 16.6635 118.449 17.3122 118.93 18.1442C119.426 18.9622 119.673 19.9141 119.673 21C119.673 22.0859 119.426 23.0449 118.93 23.8769C118.449 24.6949 117.785 25.3365 116.94 25.8019C116.094 26.2673 115.154 26.5 114.119 26.5ZM114.119 24.1519C114.848 24.1519 115.482 23.891 116.021 23.3692C116.561 22.8333 116.83 22.0436 116.83 21C116.83 19.9564 116.561 19.1737 116.021 18.6519C115.482 18.116 114.855 17.8481 114.141 17.8481C113.397 17.8481 112.755 18.116 112.216 18.6519C111.691 19.1737 111.429 19.9564 111.429 21C111.429 22.0436 111.691 22.8333 112.216 23.3692C112.755 23.891 113.39 24.1519 114.119 24.1519Z" fill="#5BBB7B"/>
<path d="M122.176 26.2462V15.7538H124.648L124.888 17.1712C125.238 16.6635 125.697 16.2615 126.266 15.9654C126.849 15.6551 127.52 15.5 128.278 15.5C129.955 15.5 131.143 16.1276 131.843 17.3827C132.236 16.8045 132.761 16.3462 133.417 16.0077C134.088 15.6692 134.817 15.5 135.604 15.5C137.018 15.5 138.105 15.909 138.863 16.7269C139.621 17.5449 140 18.7436 140 20.3231V26.2462H137.201V20.5769C137.201 19.6744 137.018 18.9833 136.654 18.5038C136.304 18.0244 135.757 17.7846 135.014 17.7846C134.256 17.7846 133.643 18.0526 133.177 18.5885C132.725 19.1244 132.499 19.8718 132.499 20.8308V26.2462H129.699V20.5769C129.699 19.6744 129.517 18.9833 129.153 18.5038C128.788 18.0244 128.227 17.7846 127.469 17.7846C126.725 17.7846 126.12 18.0526 125.654 18.5885C125.202 19.1244 124.976 19.8718 124.976 20.8308V26.2462H122.176Z" fill="#5BBB7B"/>
</svg>
